<svg xmlns="http://www.w3.org/2000/svg" viewBox="0 0 300 300">
  <defs>
    <linearGradient gradientTransform="rotate(25)" id="icon-gradient" x1="0%" y1="0%" x2="100%" y2="0%">
      <stop offset="0%" stop-color="#422F75" stop-opacity="1"></stop>
      <stop offset="100%" stop-color="#C0B3EC" stop-opacity="1"></stop>
    </linearGradient>
  </defs>
  <g stroke="none" fill="url(#icon-gradient)" transform="matrix(2.2,0,0,2.2,40,20)">
    <path d="M12.936 38.104c0 .735.36 1.231.845 1.486v19.822c-.485.257-.845.752-.845 1.487v8.491c0 .736.36 1.23.845 1.487v.731c0 2.276 1.78 4.755 3.959 5.678L44.722 88.69c2.34.988 4.617-.138 4.617-2.768V41.126c0-2.278-1.78-4.755-3.958-5.677L18.397 24.047c-2.34-.989-4.617.137-4.617 2.766v1.313c-.485.255-.845.751-.845 1.486l.001 8.492zm9.284 45.914l-4.778 2.02a.701.701 0 01-.312.057.68.68 0 01-.311-.057l-5.321-2.249a1.189 1.189 0 01-.612-.644.508.508 0 01-.068-.268v-8.832l.001-.056c0-.026.001-.053.004-.076V20.036c0-.612.129-1.138.363-1.563.657-1.755 2.138-3.413 3.86-4.141L48.141.352c.776-.329 1.504-.427 2.129-.323.532-.018 1.124.098 1.746.36L85.112 14.37c1.696.718 3.158 2.337 3.831 4.065.245.432.384.972.384 1.601v.101c.004.081.006.161.006.24v53.632l.004.066v8.835a.59.59 0 01-.059.299 1.2 1.2 0 01-.62.665l-5.321 2.249a.664.664 0 01-.31.057.654.654 0 01-.312-.057l-4.886-2.062-21.29 8.993v3.664a.57.57 0 01-.06.299c-.104.283-.343.55-.619.668l-5.32 2.246a.63.63 0 01-.312.056.616.616 0 01-.311-.056l-5.32-2.246a1.21 1.21 0 01-.612-.645.513.513 0 01-.067-.269v-3.588L22.22 84.018zm-6.751-55.892v-1.313c0-1.174.807-1.829 2.27-1.211l26.982 11.403c1.624.687 2.929 2.594 2.929 4.121v44.797c0 1.175-.808 1.828-2.27 1.21L18.397 75.731c-1.624-.688-2.928-2.594-2.928-4.121v-.731c.486-.257.845-.751.845-1.487V60.9c0-.735-.359-1.23-.845-1.487V39.591c.486-.255.845-.751.845-1.486v-8.492c0-.736-.359-1.232-.845-1.487zm5.659 20.807a3.156 3.156 0 00-.2.045c-2.312.606-3.589 3.676-2.853 6.855.734 3.182 3.204 5.269 5.516 4.662.166-.044.327-.102.482-.167 1.372 1.084 2.986 1.547 4.55 1.136 3.265-.856 5.07-5.194 4.031-9.689-1.039-4.492-4.527-7.441-7.793-6.584-1.713.449-3.024 1.856-3.733 3.742zm13.705 17.212c0 2.817 4.223 2.817 4.223 0v-8.003c0-.476.225-1.072.599-1.615.631.433 1.35.604 2.048.421 1.604-.421 2.492-2.554 1.981-4.763-.51-2.209-2.226-3.657-3.83-3.237-1.292.339-2.117 1.783-2.126 3.486-1.704 1.41-2.896 3.579-2.896 5.708l.001 8.003zM19.315 55.46c-.511-2.211.376-4.342 1.981-4.762 1.604-.42 3.32 1.028 3.831 3.235.51 2.21-.376 4.341-1.981 4.762s-3.319-1.028-3.831-3.235z"></path>
  </g>
</svg> 