<svg data-v-423bf9ae="" xmlns="http://www.w3.org/2000/svg" viewBox="0 0 317.5488876428181 185" class="iconAbove"><!----><!----><!----><g data-v-423bf9ae="" id="2083ef96-1b4a-42a1-afe4-4961be485a2e" fill="white" transform="matrix(4.511278454273106,0,0,4.511278454273106,-5.639097309172314,110.48644473504314)"><path d="M8.25 11.14C8.13 10.07 7.77 9.27 6.82 8.90C7.97 8.58 8.71 7.80 8.71 6.55C8.71 4.89 7.57 4.16 6.17 3.99C5.70 3.93 5.33 3.92 4.77 3.92L1.25 3.92L1.25 13.58L3.18 13.58L3.18 9.69L4.30 9.69C4.55 9.69 4.79 9.69 5.05 9.70C5.84 9.76 6.23 10.39 6.36 11.42C6.45 12.33 6.59 12.92 6.83 13.58L8.95 13.58C8.55 13.03 8.37 12.32 8.25 11.14ZM3.18 8.25L3.18 5.43L4.59 5.43C4.94 5.43 5.18 5.45 5.40 5.47C6.16 5.57 6.68 5.91 6.68 6.85C6.68 7.78 6.06 8.16 5.29 8.23C5.08 8.25 4.84 8.25 4.51 8.25ZM11.00 3.36C10.37 3.36 9.94 3.78 9.94 4.38C9.94 5.00 10.37 5.40 11.00 5.40C11.63 5.40 12.07 5.00 12.07 4.38C12.07 3.78 11.63 3.36 11.00 3.36ZM11.97 13.58L11.97 6.13L10.04 6.13L10.04 13.58ZM18.19 5.94C17.43 5.94 16.67 6.12 16.25 6.45L15.69 7.27L15.69 6.13L13.76 6.13L13.76 16.32L15.69 16.32L15.69 12.59L16.18 13.36C16.56 13.62 17.32 13.78 17.93 13.78C19.85 13.78 21.50 12.40 21.50 9.72C21.50 7.52 20.27 5.94 18.19 5.94ZM17.56 12.42C16.66 12.42 15.69 11.82 15.69 10.12L15.69 9.77C15.69 7.95 16.56 7.29 17.63 7.29C18.77 7.29 19.50 8.32 19.50 9.84C19.50 11.56 18.68 12.42 17.56 12.42ZM27.19 5.94C26.43 5.94 25.68 6.12 25.26 6.45L24.70 7.27L24.70 6.13L22.76 6.13L22.76 16.32L24.70 16.32L24.70 12.59L25.19 13.36C25.56 13.62 26.32 13.78 26.94 13.78C28.85 13.78 30.51 12.40 30.51 9.72C30.51 7.52 29.27 5.94 27.19 5.94ZM26.56 12.42C25.66 12.42 24.70 11.82 24.70 10.12L24.70 9.77C24.70 7.95 25.56 7.29 26.63 7.29C27.78 7.29 28.50 8.32 28.50 9.84C28.50 11.56 27.68 12.42 26.56 12.42ZM33.64 3.29L31.71 3.29L31.71 11.19C31.71 11.68 31.71 12.03 31.74 12.36C31.78 13.33 32.38 13.68 33.33 13.68C33.77 13.68 34.15 13.66 34.52 13.62L34.52 12.29C33.87 12.33 33.70 12.21 33.66 11.83C33.64 11.63 33.64 11.44 33.64 11.14ZM42.43 9.70C42.43 7.67 41.23 5.94 38.95 5.94C36.67 5.94 35.17 7.60 35.17 9.88C35.17 12.50 36.75 13.78 38.79 13.78C40.54 13.78 41.94 12.89 42.32 11.16L40.39 11.16C40.26 11.96 39.66 12.42 38.84 12.42C37.94 12.42 37.24 11.93 37.11 10.36L42.41 10.36C42.43 10.11 42.43 9.88 42.43 9.70ZM38.86 7.29C39.79 7.29 40.32 7.92 40.45 9.10L37.17 9.10C37.34 7.87 37.97 7.29 38.86 7.29ZM47.33 3.72C45.49 3.72 43.88 4.77 43.88 6.55C43.88 8.33 45.12 9.02 47.10 9.49C48.52 9.83 49.03 10.30 49.03 11.12C49.03 11.86 48.33 12.33 47.45 12.33C46.47 12.33 45.65 11.79 45.44 10.72L43.47 10.72C43.65 12.75 45.16 13.78 47.47 13.78C49.38 13.78 51.04 12.74 51.04 10.92C51.04 9.37 50.09 8.39 47.96 7.90C46.42 7.53 45.91 7.13 45.91 6.31C45.91 5.53 46.49 5.17 47.26 5.17C48.27 5.17 48.82 5.78 48.93 6.76L50.90 6.76C50.69 5.04 49.64 3.72 47.33 3.72ZM56.60 13.58L58.49 13.58C58.38 12.75 58.35 12.25 58.35 11.69L58.35 9.28C58.35 8.88 58.34 8.48 58.31 8.13C58.20 6.85 57.41 5.94 55.33 5.94C53.55 5.94 52.19 6.89 52.14 8.57L54.01 8.55C54.07 7.74 54.49 7.29 55.26 7.29C56.01 7.29 56.35 7.67 56.41 8.19C56.43 8.44 56.43 8.67 56.43 8.89L56.43 9.04L55.96 9.04C53.26 9.04 51.86 9.97 51.86 11.61C51.86 13.02 52.96 13.78 54.25 13.78C54.95 13.78 55.58 13.64 56.10 13.29L56.46 12.49ZM54.99 12.42C54.31 12.42 53.86 12.11 53.86 11.45C53.86 10.47 54.89 10.12 56.43 10.23L56.43 10.84C56.43 11.87 55.78 12.42 54.99 12.42ZM62.30 5.18C62.37 4.55 63.01 4.30 63.92 4.47L63.92 3.12C63.67 3.07 63.38 3.02 63.07 3.02C61.31 3.02 60.48 3.77 60.37 5.03C60.34 5.28 60.34 5.63 60.34 5.88L60.34 6.19L59.54 6.19L59.54 7.46L60.34 7.46L60.34 13.58L62.27 13.58L62.27 7.46L63.80 7.46L63.80 6.19L62.27 6.19L62.27 5.82C62.27 5.63 62.27 5.38 62.30 5.18ZM71.64 9.70C71.64 7.67 70.43 5.94 68.15 5.94C65.87 5.94 64.37 7.60 64.37 9.88C64.37 12.50 65.95 13.78 68.00 13.78C69.75 13.78 71.15 12.89 71.53 11.16L69.59 11.16C69.47 11.96 68.87 12.42 68.04 12.42C67.14 12.42 66.44 11.93 66.32 10.36L71.61 10.36C71.64 10.11 71.64 9.88 71.64 9.70ZM68.07 7.29C68.99 7.29 69.52 7.92 69.65 9.10L66.37 9.10C66.54 7.87 67.17 7.29 68.07 7.29Z"></path></g><!----><g data-v-423bf9ae="" id="6c233632-216d-40c8-b0cb-ac8ad3d0ef4e" transform="matrix(1.1111080593532987,0,0,1.1111080593532987,103.1756777496449,0.4459359150249398)" stroke="none" fill="white"><path d="M12.936 38.104c0 .735.36 1.231.845 1.486v19.822c-.485.257-.845.752-.845 1.487v8.491c0 .736.36 1.23.845 1.487v.731c0 2.276 1.78 4.755 3.959 5.678L44.722 88.69c2.34.988 4.617-.138 4.617-2.768V41.126c0-2.278-1.78-4.755-3.958-5.677L18.397 24.047c-2.34-.989-4.617.137-4.617 2.766v1.313c-.485.255-.845.751-.845 1.486l.001 8.492zm9.284 45.914l-4.778 2.02a.701.701 0 01-.312.057.68.68 0 01-.311-.057l-5.321-2.249a1.189 1.189 0 01-.612-.644.508.508 0 01-.068-.268v-8.832l.001-.056c0-.026.001-.053.004-.076V20.036c0-.612.129-1.138.363-1.563.657-1.755 2.138-3.413 3.86-4.141L48.141.352c.776-.329 1.504-.427 2.129-.323.532-.018 1.124.098 1.746.36L85.112 14.37c1.696.718 3.158 2.337 3.831 4.065.245.432.384.972.384 1.601v.101c.004.081.006.161.006.24v53.632l.004.066v8.835a.59.59 0 01-.059.299 1.2 1.2 0 01-.62.665l-5.321 2.249a.664.664 0 01-.31.057.654.654 0 01-.312-.057l-4.886-2.062-21.29 8.993v3.664a.57.57 0 01-.06.299c-.104.283-.343.55-.619.668l-5.32 2.246a.63.63 0 01-.312.056.616.616 0 01-.311-.056l-5.32-2.246a1.21 1.21 0 01-.612-.645.513.513 0 01-.067-.269v-3.588L22.22 84.018zm-6.751-55.892v-1.313c0-1.174.807-1.829 2.27-1.211l26.982 11.403c1.624.687 2.929 2.594 2.929 4.121v44.797c0 1.175-.808 1.828-2.27 1.21L18.397 75.731c-1.624-.688-2.928-2.594-2.928-4.121v-.731c.486-.257.845-.751.845-1.487V60.9c0-.735-.359-1.23-.845-1.487V39.591c.486-.255.845-.751.845-1.486v-8.492c0-.736-.359-1.232-.845-1.487zm5.659 20.807a3.156 3.156 0 00-.2.045c-2.312.606-3.589 3.676-2.853 6.855.734 3.182 3.204 5.269 5.516 4.662.166-.044.327-.102.482-.167 1.372 1.084 2.986 1.547 4.55 1.136 3.265-.856 5.07-5.194 4.031-9.689-1.039-4.492-4.527-7.441-7.793-6.584-1.713.449-3.024 1.856-3.733 3.742zm13.705 17.212c0 2.817 4.223 2.817 4.223 0v-8.003c0-.476.225-1.072.599-1.615.631.433 1.35.604 2.048.421 1.604-.421 2.492-2.554 1.981-4.763-.51-2.209-2.226-3.657-3.83-3.237-1.292.339-2.117 1.783-2.126 3.486-1.704 1.41-2.896 3.579-2.896 5.708l.001 8.003zM19.315 55.46c-.511-2.211.376-4.342 1.981-4.762 1.604-.42 3.32 1.028 3.831 3.235.51 2.21-.376 4.341-1.981 4.762s-3.319-1.028-3.831-3.235z"></path></g><!----></svg>